<?xml version="1.0" standalone="no"?>
<!DOCTYPE svg PUBLIC "-//W3C//DTD SVG 20010904//EN"
 "http://www.w3.org/TR/2001/REC-SVG-20010904/DTD/svg10.dtd">
<svg version="1.0" xmlns="http://www.w3.org/2000/svg"
 width="150.000000pt" height="150.000000pt" viewBox="0 0 150.000000 150.000000"
 preserveAspectRatio="xMidYMid meet">
<metadata>
Created by potrace 1.14, written by Peter Selinger 2001-2017
</metadata>
<g transform="translate(0.000000,150.000000) scale(0.100000,-0.100000)"
fill="#000000" stroke="none">
<path d="M683 1347 c-3 -5 -6 -74 -5 -153 l0 -144 -209 0 -209 0 0 -92 c-1
-114 -1 -818 0 -835 0 -9 19 -13 60 -13 l60 0 0 410 0 410 150 0 150 0 0 -147
0 -148 37 2 c21 1 47 2 59 2 20 1 20 6 20 144 l-1 142 148 3 c113 2 147 0 148
-10 1 -7 3 -186 4 -398 1 -212 3 -391 4 -397 1 -9 20 -13 59 -13 l57 0 0 470
0 470 -207 0 -207 0 0 98 c0 53 0 122 0 152 l-1 55 -56 1 c-30 0 -58 -4 -61
-9z"/>
</g>
</svg>
