<?xml version="1.0" encoding="utf-8" ?>
<svg width="52" height="31" viewBox="0 0 52 31" fill="none" xmlns="http://www.w3.org/2000/svg">
<path d="M0.996 0.65L5.529 0.65C6.64912 0.612227 7.75961 0.868387 8.75 1.393C9.60429 1.87254 10.2877 2.60664 10.705 3.493C11.1609 4.49966 11.3838 5.59623 11.357 6.701C11.3838 7.80577 11.1609 8.90234 10.705 9.909C10.2877 10.7954 9.60429 11.5295 8.75 12.009C7.75942 12.5329 6.64894 12.7884 5.529 12.75L0.995999 12.75L0.996 0.65ZM5.387 10.26C5.8078 10.2934 6.23063 10.2296 6.62285 10.0735C7.01506 9.91746 7.36615 9.67334 7.649 9.36C8.19286 8.58247 8.45241 7.64139 8.384 6.695C8.45133 5.74622 8.19196 4.80297 7.649 4.022C7.36672 3.70794 7.01572 3.46331 6.62336 3.3072C6.231 3.15109 5.80788 3.08771 5.387 3.122L3.827 3.122L3.827 10.26L5.387 10.26ZM21.587 4.084L21.587 12.75L19.018 12.75L18.96 11.771C18.7072 12.1655 18.3393 12.4727 17.906 12.651C17.4102 12.8619 16.8757 12.9665 16.337 12.958C15.5955 12.967 14.8647 12.7807 14.218 12.418C13.5742 12.0493 13.0482 11.5056 12.701 10.85C12.3107 10.1075 12.1165 9.27759 12.137 8.439C12.1165 7.60041 12.3107 6.77049 12.701 6.028C13.0498 5.37408 13.5755 4.83143 14.218 4.462C14.8633 4.097 15.5937 3.90932 16.335 3.918C16.8464 3.91217 17.3539 4.00662 17.829 4.196C18.2451 4.35266 18.6079 4.62461 18.875 4.98L18.875 4.08L21.587 4.084ZM16.976 10.725C17.355 10.7308 17.7287 10.6359 18.059 10.45C18.3851 10.262 18.6502 9.98436 18.823 9.65C19.0148 9.27678 19.1104 8.86154 19.101 8.442C19.1098 8.02066 19.0125 7.60388 18.818 7.23C18.6439 6.89662 18.379 6.61928 18.054 6.43C17.7261 6.24217 17.3539 6.14549 16.976 6.15C16.5959 6.14408 16.2209 6.2386 15.889 6.424C15.5642 6.61043 15.2992 6.88548 15.125 7.217C14.9294 7.59473 14.8324 8.01576 14.843 8.441C14.8329 8.86363 14.9299 9.28194 15.125 9.657C15.2992 9.98852 15.5642 10.2636 15.889 10.45C16.2208 10.6358 16.5958 10.7306 16.976 10.725ZM28.705 3.918C29.5948 3.8549 30.475 4.1339 31.166 4.698C31.4568 4.98749 31.6825 5.33573 31.8278 5.71945C31.9732 6.10316 32.035 6.51349 32.009 6.923L32.009 12.75L29.286 12.75L29.286 7.496C29.3039 7.29771 29.2772 7.09794 29.208 6.91126C29.1388 6.72459 29.0288 6.55572 28.886 6.417C28.5913 6.1812 28.221 6.06038 27.844 6.077C27.3571 6.05745 26.881 6.22367 26.512 6.542C26.3201 6.75101 26.174 6.99788 26.0833 7.26672C25.9925 7.53557 25.959 7.82044 25.985 8.103L25.985 12.75L23.276 12.75L23.276 4.084L25.982 4.084L25.982 5.014C26.306 4.65953 26.706 4.38296 27.152 4.205C27.6458 4.00835 28.1735 3.91083 28.705 3.918V3.918ZM33.553 4.084L36.276 4.084L36.276 12.75L33.553 12.75L33.553 4.084ZM34.939 3.022C34.6698 3.02496 34.4046 2.95591 34.171 2.822C33.9408 2.69127 33.7491 2.50228 33.615 2.274C33.4804 2.04359 33.4113 1.78082 33.415 1.514C33.4121 1.25014 33.4813 0.990491 33.615 0.763001C33.7491 0.534727 33.9408 0.345736 34.171 0.215002C34.4046 0.0810962 34.6698 0.012048 34.939 0.0150019C35.2002 0.0128387 35.4571 0.0819877 35.682 0.215002C35.9087 0.347576 36.0974 0.536304 36.23 0.763001C36.3637 0.990491 36.4329 1.25014 36.43 1.514C36.4325 1.77908 36.3634 2.03992 36.23 2.269C36.0983 2.49744 35.9095 2.68768 35.682 2.821C35.4571 2.95402 35.2002 3.02316 34.939 3.021L34.939 3.022ZM46.403 8.95L40.103 8.95C40.1124 9.21105 40.1742 9.46755 40.2846 9.70426C40.3951 9.94098 40.552 10.1531 40.746 10.328C41.1365 10.6493 41.6306 10.8175 42.136 10.801C42.5007 10.8113 42.8612 10.721 43.178 10.54C43.4741 10.3593 43.7031 10.0868 43.83 9.764L46.32 10.104C46.1509 10.6722 45.8524 11.1935 45.448 11.627C45.0456 12.053 44.5519 12.3823 44.004 12.59C43.4128 12.8134 42.785 12.9247 42.153 12.918C41.2861 12.9389 40.4263 12.7571 39.642 12.387C38.9498 12.0505 38.3763 11.5113 37.998 10.841C37.596 10.1005 37.3959 9.26728 37.418 8.425C37.3958 7.58004 37.5962 6.7441 37.999 6.001C38.3757 5.33032 38.9434 4.78692 39.63 4.44C40.3843 4.06774 41.2171 3.88252 42.058 3.9C42.8394 3.88371 43.6143 4.04546 44.324 4.373C44.9767 4.68807 45.515 5.19875 45.864 5.834C46.2627 6.59624 46.4586 7.44819 46.433 8.308L46.403 8.95ZM42.078 5.794C41.6545 5.74527 41.2279 5.85471 40.8802 6.10129C40.5325 6.34788 40.2881 6.71423 40.194 7.13L43.755 7.13C43.6954 6.73813 43.4892 6.38354 43.178 6.138C42.8603 5.90327 42.4729 5.78212 42.078 5.794V5.794ZM47.632 2.08206e-06L50.363 2.20144e-06L50.363 12.75L47.632 12.75L47.632 2.08206e-06ZM3.379 30.916C2.82452 30.9109 2.27263 30.8397 1.735 30.704C1.1322 30.5547 0.549653 30.333 -1.31326e-06 30.044L1.187 27.728C1.47117 27.9298 1.77917 28.0957 2.104 28.222C2.3975 28.3305 2.7081 28.3853 3.021 28.384C3.20602 28.3997 3.39208 28.3697 3.56279 28.2967C3.73351 28.2236 3.88365 28.1097 4 27.965C4.24234 27.5317 4.34927 27.0357 4.307 26.541L4.307 18.65L7.139 18.65L7.139 27.084C7.16127 27.8127 6.99854 28.5352 6.666 29.184C6.3688 29.7418 5.90823 30.1954 5.346 30.484C4.73453 30.7838 4.05984 30.932 3.379 30.916V30.916ZM17.818 22.084L17.818 30.75L15.257 30.75L15.199 29.771C14.9462 30.1655 14.5783 30.4727 14.145 30.651C13.6492 30.8619 13.1147 30.9665 12.576 30.958C11.8352 30.9666 11.1052 30.7804 10.459 30.418C9.81451 30.0496 9.28777 29.5059 8.94 28.85C8.54966 28.1075 8.35552 27.2776 8.376 26.439C8.35552 25.6004 8.54966 24.7705 8.94 24.028C9.28891 23.3727 9.81535 22.8289 10.459 22.459C11.1043 22.094 11.8347 21.9063 12.576 21.915C13.0874 21.9092 13.5949 22.0036 14.07 22.193C14.4861 22.3497 14.8489 22.6216 15.116 22.977L15.116 22.077L17.818 22.084ZM13.218 28.725C13.5973 28.7299 13.971 28.634 14.301 28.447C14.6271 28.259 14.8922 27.9814 15.065 27.647C15.2494 27.2703 15.3453 26.8564 15.3453 26.437C15.3453 26.0176 15.2494 25.6037 15.065 25.227C14.8909 24.8936 14.626 24.6163 14.301 24.427C13.9713 24.2393 13.5973 24.1437 13.218 24.15C12.8379 24.1441 12.4629 24.2386 12.131 24.424C11.8062 24.6104 11.5412 24.8855 11.367 25.217C11.1814 25.5969 11.0849 26.0142 11.0849 26.437C11.0849 26.8598 11.1814 27.2771 11.367 27.657C11.5412 27.9885 11.8062 28.2636 12.131 28.45C12.4628 28.6358 12.8378 28.7306 13.218 28.725V28.725ZM30.207 21.918C31.0326 21.8699 31.8482 22.1181 32.507 22.618C32.7887 22.8662 33.0102 23.1753 33.1547 23.5218C33.2992 23.8683 33.3629 24.2432 33.341 24.618L33.341 30.75L30.639 30.75L30.639 25.404C30.658 25.2299 30.6388 25.0538 30.5825 24.888C30.5262 24.7222 30.4344 24.5707 30.3134 24.4441C30.1923 24.3176 30.0451 24.2191 29.882 24.1555C29.7188 24.0919 29.5437 24.0647 29.369 24.076C29.1601 24.0686 28.9519 24.1046 28.7576 24.1817C28.5633 24.2588 28.387 24.3754 28.24 24.524C27.9067 24.9438 27.749 25.4764 27.8 26.01L27.8 30.75L25.061 30.75L25.061 25.421C25.0814 25.2444 25.0627 25.0655 25.0061 24.897C24.9495 24.7285 24.8564 24.5745 24.7335 24.4461C24.6106 24.3177 24.4609 24.2179 24.2951 24.1539C24.1292 24.09 23.9513 24.0634 23.774 24.076C23.5636 24.0701 23.3544 24.1092 23.1603 24.1908C22.9663 24.2724 22.7919 24.3945 22.649 24.549C22.3071 25.0124 22.149 25.5859 22.205 26.159L22.205 30.75L19.518 30.75L19.518 22.084L22.207 22.084L22.207 23.084C22.4974 22.7083 22.8749 22.409 23.307 22.212C23.764 22.0082 24.2597 21.9058 24.76 21.912C25.3346 21.8974 25.9054 22.008 26.433 22.236C26.8743 22.4283 27.2424 22.7571 27.483 23.174C27.7841 22.7655 28.1839 22.44 28.645 22.228C29.1371 22.0128 29.67 21.907 30.207 21.918V21.918ZM43.34 26.95L37.04 26.95C37.0494 27.2111 37.1112 27.4675 37.2216 27.7043C37.3321 27.941 37.489 28.1531 37.683 28.328C38.0735 28.6493 38.5676 28.8175 39.073 28.801C39.4377 28.8113 39.7982 28.721 40.115 28.54C40.4111 28.3593 40.6401 28.0868 40.767 27.764L43.257 28.104C43.0879 28.6722 42.7894 29.1935 42.385 29.627C41.9826 30.053 41.4889 30.3823 40.941 30.59C40.3498 30.8134 39.722 30.9247 39.09 30.918C38.2231 30.9389 37.3633 30.7571 36.579 30.387C35.887 30.051 35.3137 29.5125 34.935 28.843C34.534 28.1022 34.335 27.269 34.358 26.427C34.3358 25.582 34.5362 24.7461 34.939 24.003C35.3157 23.3323 35.8834 22.7889 36.57 22.442C37.3243 22.0697 38.1571 21.8845 38.998 21.902C39.7794 21.8857 40.5543 22.0475 41.264 22.375C41.9167 22.6901 42.455 23.2007 42.804 23.836C43.2027 24.5982 43.3986 25.4502 43.373 26.31L43.34 26.95ZM39.018 23.794C38.5945 23.7453 38.1679 23.8547 37.8202 24.1013C37.4725 24.3479 37.2281 24.7142 37.134 25.13L40.695 25.13C40.6354 24.7381 40.4292 24.3835 40.118 24.138C39.8003 23.9033 39.4129 23.7821 39.018 23.794V23.794ZM47.792 30.916C46.8933 30.9495 46.0019 30.7424 45.21 30.316C44.8783 30.1283 44.5929 29.8688 44.3745 29.5565C44.1562 29.2441 44.0104 28.8869 43.948 28.511L46.198 27.88C46.292 28.2411 46.5074 28.5589 46.808 28.78C47.1063 28.9696 47.4547 29.065 47.808 29.054C48.0733 29.0625 48.3367 29.007 48.576 28.892C48.6757 28.8409 48.7577 28.7608 48.8113 28.6623C48.8648 28.5639 48.8873 28.4515 48.876 28.34C48.8782 28.2515 48.8615 28.1635 48.827 28.0819C48.7925 28.0004 48.741 27.9271 48.676 27.867C48.5254 27.7308 48.3489 27.6264 48.157 27.56C47.947 27.4827 47.647 27.3913 47.257 27.286C46.855 27.1861 46.4587 27.0643 46.07 26.921C45.5451 26.7407 45.0669 26.4459 44.67 26.058C44.4898 25.8541 44.3516 25.6166 44.2632 25.3593C44.1749 25.1019 44.1381 24.8296 44.155 24.558C44.1369 24.0346 44.2946 23.5202 44.603 23.097C44.9213 22.69 45.3511 22.3843 45.84 22.217C46.4214 22.0139 47.0342 21.9154 47.65 21.926C48.4602 21.8981 49.2629 22.0888 49.974 22.478C50.287 22.6654 50.5553 22.9188 50.7603 23.2205C50.9653 23.5222 51.102 23.865 51.161 24.225L49.086 24.682C48.9886 24.3748 48.7933 24.1078 48.53 23.922C48.2675 23.7632 47.9646 23.684 47.658 23.694C47.3976 23.6836 47.1385 23.7365 46.903 23.848C46.8145 23.8877 46.7397 23.9526 46.688 24.0346C46.6362 24.1166 46.6098 24.2121 46.612 24.309C46.611 24.3834 46.6274 24.4571 46.6599 24.5241C46.6923 24.5911 46.74 24.6496 46.799 24.695C46.9412 24.8068 47.103 24.8912 47.276 24.944C47.47 25.0107 47.744 25.0867 48.098 25.172C48.298 25.216 48.4943 25.2657 48.687 25.321C49.1703 25.4505 49.6394 25.6284 50.087 25.852C50.4876 26.0569 50.8312 26.3579 51.087 26.728C51.367 27.1547 51.5068 27.6581 51.487 28.168C51.5164 28.5775 51.4352 28.9873 51.2519 29.3547C51.0686 29.722 50.7899 30.0333 50.445 30.256C49.6408 30.725 48.7192 30.9541 47.789 30.916L47.792 30.916Z" fill="white"/>
</svg>
