<?xml version="1.0" encoding="utf-8" ?>
<svg xmlns="http://www.w3.org/2000/svg" width="30.958" height="51.483" viewBox="0 0 30.958 51.483"><path d="M1.278-12.1H5.811a6.419,6.419,0,0,1,3.221.743,4.708,4.708,0,0,1,1.955,2.1,7.344,7.344,0,0,1,.652,3.208,7.344,7.344,0,0,1-.652,3.208,4.708,4.708,0,0,1-1.955,2.1A6.419,6.419,0,0,1,5.811,0H1.278ZM5.669-2.49a2.754,2.754,0,0,0,2.262-.9,4.13,4.13,0,0,0,.735-2.665,4.166,4.166,0,0,0-.735-2.673,2.742,2.742,0,0,0-2.262-.9H4.109V-2.49Zm16.2-6.176V0H19.3l-.058-.979a2.284,2.284,0,0,1-1.054.88,3.853,3.853,0,0,1-1.569.307A4.227,4.227,0,0,1,14.5-.332,3.923,3.923,0,0,1,12.983-1.9a4.923,4.923,0,0,1-.564-2.411,4.923,4.923,0,0,1,.564-2.411A3.952,3.952,0,0,1,14.5-8.288a4.2,4.2,0,0,1,2.117-.544,3.914,3.914,0,0,1,1.494.278,2.34,2.34,0,0,1,1.046.784v-.9ZM17.258-2.025A2.141,2.141,0,0,0,18.341-2.3a1.964,1.964,0,0,0,.764-.8,2.519,2.519,0,0,0,.278-1.208A2.513,2.513,0,0,0,19.1-5.52a1.994,1.994,0,0,0-.764-.8A2.118,2.118,0,0,0,17.258-6.6a2.16,2.16,0,0,0-1.087.274,1.972,1.972,0,0,0-.764.793,2.525,2.525,0,0,0-.282,1.224,2.506,2.506,0,0,0,.282,1.216,1.972,1.972,0,0,0,.764.793A2.16,2.16,0,0,0,17.258-2.025ZM28.987-8.832a3.5,3.5,0,0,1,2.461.78,2.882,2.882,0,0,1,.843,2.225V0H29.568V-5.254a1.337,1.337,0,0,0-.4-1.079,1.558,1.558,0,0,0-1.042-.34,1.921,1.921,0,0,0-1.332.465,2.033,2.033,0,0,0-.527,1.561V0H23.558V-8.666h2.706v.93a3.183,3.183,0,0,1,1.17-.809A4.05,4.05,0,0,1,28.987-8.832Zm4.848.166h2.723V0H33.835Zm1.386-1.062a1.511,1.511,0,0,1-.768-.2,1.509,1.509,0,0,1-.556-.548,1.466,1.466,0,0,1-.2-.76,1.451,1.451,0,0,1,.2-.751,1.509,1.509,0,0,1,.556-.548,1.511,1.511,0,0,1,.768-.2,1.436,1.436,0,0,1,.743.2,1.529,1.529,0,0,1,.548.548,1.451,1.451,0,0,1,.2.751,1.473,1.473,0,0,1-.2.755,1.519,1.519,0,0,1-.548.552A1.436,1.436,0,0,1,35.221-9.729ZM46.685-3.8h-6.3a1.95,1.95,0,0,0,.643,1.378,2.081,2.081,0,0,0,1.39.473,1.988,1.988,0,0,0,1.042-.261,1.591,1.591,0,0,0,.652-.776l2.49.34a3.836,3.836,0,0,1-.872,1.523,3.876,3.876,0,0,1-1.444.963,5.084,5.084,0,0,1-1.851.328,5.57,5.57,0,0,1-2.511-.531A3.791,3.791,0,0,1,38.28-1.909,4.8,4.8,0,0,1,37.7-4.325a4.821,4.821,0,0,1,.581-2.424,3.875,3.875,0,0,1,1.631-1.561,5.24,5.24,0,0,1,2.428-.54,5.151,5.151,0,0,1,2.266.473,3.486,3.486,0,0,1,1.54,1.461,5.016,5.016,0,0,1,.569,2.474ZM42.36-6.956A1.729,1.729,0,0,0,40.476-5.62h3.561a1.563,1.563,0,0,0-.577-.992A1.762,1.762,0,0,0,42.36-6.956Zm5.554-5.794h2.731V0H47.914ZM3.661,18.166a6.977,6.977,0,0,1-1.644-.212,7.713,7.713,0,0,1-1.735-.66l1.187-2.316a4.235,4.235,0,0,0,.917.494,2.613,2.613,0,0,0,.917.162,1.133,1.133,0,0,0,.979-.419,2.484,2.484,0,0,0,.307-1.424V5.9H7.421v8.434a4.315,4.315,0,0,1-.473,2.1,3.1,3.1,0,0,1-1.32,1.3A4.241,4.241,0,0,1,3.661,18.166ZM18.1,9.334V18H15.539l-.058-.979a2.284,2.284,0,0,1-1.054.88,3.853,3.853,0,0,1-1.569.307,4.227,4.227,0,0,1-2.117-.54A3.923,3.923,0,0,1,9.222,16.1a4.923,4.923,0,0,1-.564-2.411,4.923,4.923,0,0,1,.564-2.411,3.952,3.952,0,0,1,1.519-1.569,4.2,4.2,0,0,1,2.117-.544,3.914,3.914,0,0,1,1.494.278,2.34,2.34,0,0,1,1.046.784v-.9ZM13.5,15.975a2.141,2.141,0,0,0,1.083-.278,1.964,1.964,0,0,0,.764-.8,2.752,2.752,0,0,0,0-2.42,1.994,1.994,0,0,0-.764-.8A2.118,2.118,0,0,0,13.5,11.4a2.16,2.16,0,0,0-1.087.274,1.972,1.972,0,0,0-.764.793,2.779,2.779,0,0,0,0,2.44,1.972,1.972,0,0,0,.764.793A2.16,2.16,0,0,0,13.5,15.975ZM30.489,9.168a3.471,3.471,0,0,1,2.3.7,2.473,2.473,0,0,1,.834,2V18H30.921V12.654a1.2,1.2,0,0,0-1.27-1.328,1.513,1.513,0,0,0-1.129.448,2.073,2.073,0,0,0-.44,1.486V18H25.343V12.671a1.209,1.209,0,0,0-1.287-1.345,1.476,1.476,0,0,0-1.125.473,2.33,2.33,0,0,0-.444,1.61V18H19.8V9.334h2.689v1a2.922,2.922,0,0,1,1.1-.872,3.462,3.462,0,0,1,1.453-.3,3.964,3.964,0,0,1,1.673.324,2.25,2.25,0,0,1,1.05.938,3,3,0,0,1,1.162-.946A3.708,3.708,0,0,1,30.489,9.168ZM43.622,14.2h-6.3a1.95,1.95,0,0,0,.643,1.378,2.081,2.081,0,0,0,1.39.473,1.988,1.988,0,0,0,1.042-.261,1.591,1.591,0,0,0,.652-.776l2.49.34a3.836,3.836,0,0,1-.872,1.523,3.876,3.876,0,0,1-1.444.963,5.084,5.084,0,0,1-1.851.328,5.57,5.57,0,0,1-2.511-.531,3.791,3.791,0,0,1-1.644-1.544,4.8,4.8,0,0,1-.577-2.416,4.821,4.821,0,0,1,.581-2.424,3.875,3.875,0,0,1,1.631-1.561,5.24,5.24,0,0,1,2.428-.54,5.151,5.151,0,0,1,2.266.473,3.486,3.486,0,0,1,1.54,1.461,5.016,5.016,0,0,1,.569,2.474ZM39.3,11.044a1.729,1.729,0,0,0-1.884,1.336h3.561a1.563,1.563,0,0,0-.577-.992A1.762,1.762,0,0,0,39.3,11.044Zm8.774,7.122a5.049,5.049,0,0,1-2.582-.6,2.555,2.555,0,0,1-1.262-1.805l2.25-.631a1.625,1.625,0,0,0,.61.9,1.762,1.762,0,0,0,1,.274,1.651,1.651,0,0,0,.768-.162.557.557,0,0,0,.3-.552.623.623,0,0,0-.2-.473,1.509,1.509,0,0,0-.519-.307q-.315-.116-.9-.274a11.342,11.342,0,0,1-1.187-.365,3.743,3.743,0,0,1-1.4-.863,2.071,2.071,0,0,1-.515-1.5,2.343,2.343,0,0,1,.448-1.461,2.666,2.666,0,0,1,1.237-.88,5.216,5.216,0,0,1,1.81-.291,4.516,4.516,0,0,1,2.324.552,2.509,2.509,0,0,1,1.187,1.747l-2.075.457a1.476,1.476,0,0,0-.556-.76,1.585,1.585,0,0,0-.872-.228,1.614,1.614,0,0,0-.755.154.493.493,0,0,0-.291.461.479.479,0,0,0,.187.386,1.463,1.463,0,0,0,.477.249q.291.1.822.228.3.066.589.149a7.441,7.441,0,0,1,1.4.531,2.723,2.723,0,0,1,1,.876,2.451,2.451,0,0,1,.4,1.44,2.29,2.29,0,0,1-1.042,2.088A4.876,4.876,0,0,1,48.071,18.166Z" transform="translate(12.75 51.765) rotate(-90)"/></svg>